Coordinates
version=1
nRows=26
nColumns=22
inDegrees=yes

Units are S.I. units (second, meters, Newtons, ...)
If the header above contains a line with 'inDegrees', this indicates whether rotational values are in degrees (yes) or radians (no).

endheader
time	pelvis_tilt	pelvis_list	pelvis_rotation	pelvis_tx	pelvis_ty	pelvis_tz	hip_flexion_r	hip_adduction_r	hip_rotation_r	knee_angle_r	ankle_angle_r	subtalar_angle_r	hip_flexion_l	hip_adduction_l	hip_rotation_l	knee_angle_l	ankle_angle_l	subtalar_angle_l	lumbar_extension	lumbar_bending	lumbar_rotation
      0.01000000	     -0.86663717	      1.00944876	    -25.01654804	     -0.97415690	      0.90391011	     -0.37915326	     -5.77629726	     -1.35448442	     -0.24806545	      1.36215929	     14.94690082	      0.35191065	      1.65839633	     -2.06629072	    -11.96937137	    -13.36735592	     15.74750471	      2.47916643	     -2.30374894	     -3.81444520	      3.95870516
      0.02000000	     -0.86902992	      1.01224669	    -25.01628420	     -0.97412504	      0.90390590	     -0.37909573	     -5.77815781	     -1.35421787	     -0.24806436	      1.36127712	     14.94676992	      0.35167717	      1.65836637	     -2.06662125	    -11.96956216	    -13.36752737	     15.74720817	      2.47928314	     -2.30518687	     -3.81384075	      3.95891435
      0.03000000	     -0.87012270	      1.01446439	    -25.00671119	     -0.97408459	      0.90390206	     -0.37905238	     -5.78397503	     -1.35396333	     -0.24830176	      1.36113553	     14.94452495	      0.34795546	      1.65996155	     -2.06730453	    -11.97429495	    -13.36983103	     15.74196416	      2.48107174	     -2.31109328	     -3.81177347	      3.96401325
      0.04000000	     -0.87268423	      1.01776403	    -25.00681091	     -0.97404456	      0.90389395	     -0.37898136	     -5.78602422	     -1.35335255	     -0.24841034	      1.36034146	     14.94439198	      0.34775106	      1.65970832	     -2.06769048	    -11.97435487	    -13.37034368	     15.74166326	      2.48116516	     -2.31249533	     -3.81094626	      3.96427330
      0.05000000	     -0.87523010	      1.02118667	    -25.00647485	     -0.97400217	      0.90388351	     -0.37890962	     -5.78811516	     -1.35276725	     -0.24851938	      1.35962818	     14.94428304	      0.34755577	      1.65945973	     -2.06801599	    -11.97450094	    -13.37088239	     15.74133894	      2.48124892	     -2.31395039	     -3.80984517	      3.96476499
      0.06000000	     -0.87235555	      1.01494365	    -24.99681405	     -0.97394707	      0.90387981	     -0.37884972	     -5.81529720	     -1.34416354	     -0.26376912	      1.38636037	     14.94055891	      0.33381101	      1.66243574	     -2.07951053	    -11.98784536	    -13.39513505	     15.72062192	      2.48748631	     -2.32631921	     -3.80174620	      3.98951324
      0.07000000	     -0.87476746	      1.01847101	    -24.99634205	     -0.97390301	      0.90386635	     -0.37877938	     -5.81672821	     -1.34350221	     -0.26359591	      1.38565878	     14.94045915	      0.33368053	      1.66165435	     -2.07964952	    -11.98800821	    -13.39550244	     15.72059191	      2.48756873	     -2.32769004	     -3.80060321	      3.98949956
      0.08000000	     -0.87640440	      1.02094287	    -24.98941511	     -0.97384738	      0.90385316	     -0.37873633	     -5.82130787	     -1.34406230	     -0.26293420	      1.38712324	     14.94042425	      0.33190820	      1.66059271	     -2.07919324	    -11.99169604	    -13.39464131	     15.72037081	      2.48872643	     -2.33031390	     -3.79463033	      3.99000605
      0.09000000	     -0.87876000	      1.02420489	    -24.98909434	     -0.97380358	      0.90383887	     -0.37866972	     -5.82257224	     -1.34352133	     -0.26294448	      1.38681806	     14.94046940	      0.33179384	      1.65972901	     -2.07980431	    -11.99179933	    -13.39501672	     15.72035397	      2.48879661	     -2.33167981	     -3.79380834	      3.99008486
      0.10000000	     -0.88109300	      1.02717900	    -24.98842504	     -0.97375965	      0.90382463	     -0.37860755	     -5.82381408	     -1.34314377	     -0.26297294	      1.38662129	     14.94059335	      0.33168568	      1.65888171	     -2.08043245	    -11.99199541	    -13.39528286	     15.72035381	      2.48886276	     -2.33302570	     -3.79292768	      3.99028073
      0.11000000	     -0.88008028	      1.01663999	    -24.97604760	     -0.97368061	      0.90381537	     -0.37854303	     -5.85634779	     -1.32886632	     -0.27720692	      1.42143575	     14.95532359	      0.32173521	      1.64717036	     -2.09542002	    -12.00677447	    -13.39347330	     15.72385425	      2.49544941	     -2.33983025	     -3.78073965	      3.99287690
      0.12000000	     -0.88237527	      1.01928898	    -24.97558934	     -0.97363415	      0.90380192	     -0.37848806	     -5.85741209	     -1.32886834	     -0.27706415	      1.42078042	     14.95520506	      0.32163781	      1.64622972	     -2.09582067	    -12.00673443	    -13.39396065	     15.72394280	      2.49551956	     -2.34126378	     -3.77997336	      3.99287313
      0.13000000	     -0.88218788	      1.02054556	    -24.96823400	     -0.97357951	      0.90379323	     -0.37845829	     -5.86188891	     -1.32992768	     -0.27594116	      1.41897914	     14.95454470	      0.32022536	      1.64415992	     -2.09573463	    -12.00751556	    -13.39465873	     15.72604829	      2.49662768	     -2.34663697	     -3.77632172	      3.99204857
      0.14000000	     -0.88463222	      1.02287861	    -24.96819711	     -0.97353231	      0.90377987	     -0.37840723	     -5.86299675	     -1.32969177	     -0.27598437	      1.41852725	     14.95454374	      0.32014786	      1.64327817	     -2.09620924	    -12.00739385	    -13.39519372	     15.72617797	      2.49668615	     -2.34812348	     -3.77596359	      3.99187678
      0.15000000	     -0.88710095	      1.02494859	    -24.96797850	     -0.97348255	      0.90376786	     -0.37836205	     -5.86409406	     -1.32967892	     -0.27603828	      1.41812649	     14.95458961	      0.32008279	      1.64252177	     -2.09669945	    -12.00729346	    -13.39570634	     15.72634615	      2.49674490	     -2.34972698	     -3.77561272	      3.99165291
      0.16000000	     -0.86817731	      1.01344936	    -24.94296058	     -0.97343482	      0.90378274	     -0.37836400	     -5.90308161	     -1.32511114	     -0.29076388	      1.43397260	     14.96634510	      0.31332410	      1.63597289	     -2.10410920	    -11.99726819	    -13.42846374	     15.75311659	      2.50508124	     -2.39048321	     -3.77095363	      3.94772962
      0.17000000	     -0.87119715	      1.01534239	    -24.94291575	     -0.97338106	      0.90377123	     -0.37832511	     -5.90399421	     -1.32526257	     -0.29100484	      1.43370143	     14.96630646	      0.31328808	      1.63530562	     -2.10436739	    -11.99720655	    -13.42869889	     15.75319061	      2.50511576	     -2.39211780	     -3.77055819	      3.94773496
      0.18000000	     -0.87520048	      1.01749556	    -24.94129153	     -0.97334444	      0.90375874	     -0.37831255	     -5.90354803	     -1.32681153	     -0.29376995	      1.43777289	     14.96671924	      0.31321790	      1.63812484	     -2.10362192	    -11.99690113	    -13.42778611	     15.75458102	      2.50553743	     -2.40111348	     -3.76820470	      3.94608556
      0.19000000	     -0.86930065	      1.02068878	    -24.91724124	     -0.97329667	      0.90375164	     -0.37833188	     -5.92385049	     -1.33237727	     -0.31052868	      1.45677041	     14.97301894	      0.31580848	      1.65209451	     -2.09995099	    -11.97965342	    -13.46157213	     15.76971468	      2.50913855	     -2.42203717	     -3.77379984	      3.91145551
      0.20000000	     -0.87449343	      1.02227335	    -24.91679518	     -0.97326048	      0.90373884	     -0.37831683	     -5.92218005	     -1.33293767	     -0.31279843	      1.45998518	     14.97329430	      0.31617963	      1.65511227	     -2.10020721	    -11.97895516	    -13.46019092	     15.77054560	      2.50919237	     -2.43024435	     -3.77337411	      3.90945913
      0.21000000	     -0.87970434	      1.02458166	    -24.91388507	     -0.97322962	      0.90372729	     -0.37831575	     -5.92029427	     -1.33455225	     -0.31480973	      1.46411265	     14.97405272	      0.31700711	      1.66115101	     -2.09912264	    -11.97695642	    -13.46163922	     15.77183339	      2.50913516	     -2.44185087	     -3.77349634	      3.90598826
      0.22000000	     -0.87919169	      1.03251399	    -24.88644744	     -0.97320924	      0.90371071	     -0.37836198	     -5.92753281	     -1.34383535	     -0.32488603	      1.47554645	     14.97906434	      0.32457708	      1.69279137	     -2.09319467	    -11.94832646	    -13.50889594	     15.78100036	      2.50693662	     -2.46314814	     -3.78484635	      3.87336338
      0.23000000	     -0.88677446	      1.03427696	    -24.88542654	     -0.97318128	      0.90369845	     -0.37836482	     -5.92340300	     -1.34352954	     -0.32862591	      1.48084982	     14.97957949	      0.32531342	      1.69912609	     -2.09281642	    -11.94729315	    -13.50659806	     15.78200699	      2.50635564	     -2.47454205	     -3.78490405	      3.87079261
      0.24000000	     -0.91427466	      1.04240487	    -24.83351224	     -0.97314089	      0.90364822	     -0.37845255	     -5.90854357	     -1.33650663	     -0.38704178	      1.49809777	     14.97892204	      0.34364371	      1.76326534	     -2.09682201	    -11.88955982	    -13.55509776	     15.80140366	      2.48552378	     -2.46676343	     -3.78084169	      3.80502440
      0.25000000	     -0.92157248	      1.04359174	    -24.83254026	     -0.97312007	      0.90363698	     -0.37846430	     -5.90310731	     -1.33578077	     -0.38789824	      1.50082550	     14.97874264	      0.34419033	      1.77014477	     -2.09603057	    -11.88844145	    -13.55277709	     15.80180348	      2.48481918	     -2.48157455	     -3.78305190	      3.80657766
      0.26000000	     -0.92710284	      1.04784070	    -24.81887499	     -0.97311922	      0.90362533	     -0.37851895	     -5.89267207	     -1.33957908	     -0.39072734	      1.49364939	     14.97472332	      0.34829315	      1.79684293	     -2.09183541	    -11.86169712	    -13.58198488	     15.80371222	      2.47692169	     -2.50419055	     -3.79021798	      3.81096398
